<svg version="1.1" xmlns="http://www.w3.org/2000/svg" xmlns:xlink="http://www.w3.org/1999/xlink" width="298.64918" height="71.79246" viewBox="0,0,298.64918,71.79246"><g transform="translate(-85.32813,-25.62421)"><g data-paper-data="{&quot;isPaintingLayer&quot;:true}" fill-rule="nonzero" stroke-linejoin="miter" stroke-miterlimit="10" stroke-dasharray="" stroke-dashoffset="0" style="mix-blend-mode: normal"><path d="M108.07813,95.5h154" fill="none" stroke="#000000" stroke-width="2.5" stroke-linecap="round"/><path d="M272.2448,96.16667h-185.66667" fill="none" stroke="#000000" stroke-width="2.5" stroke-linecap="round"/><path d="M122.99983,81.125c0.64952,0 1.17605,0.541 1.17605,1.20834c0,0.66735 -0.52654,1.20833 -1.17605,1.20833c-0.64951,0 -1.17605,-0.54099 -1.17605,-1.20833c0,-0.66735 0.52653,-1.20834 1.17605,-1.20834z" fill="#000000" stroke="#000000" stroke-width="0" stroke-linecap="butt"/><path d="M135.49983,76.625c0.64952,0 1.17605,0.541 1.17605,1.20834c0,0.66735 -0.52653,1.20833 -1.17605,1.20833c-0.64952,0 -1.17605,-0.54099 -1.17605,-1.20833c0,-0.66735 0.52653,-1.20834 1.17605,-1.20834z" fill="#000000" stroke="#000000" stroke-width="0" stroke-linecap="butt"/><path d="M149.49983,72.625c0.64952,0 1.17605,0.541 1.17605,1.20834c0,0.66735 -0.52653,1.20833 -1.17605,1.20833c-0.64952,0 -1.17605,-0.54099 -1.17605,-1.20833c0,-0.66735 0.52653,-1.20834 1.17605,-1.20834z" fill="#000000" stroke="#000000" stroke-width="0" stroke-linecap="butt"/><path d="M161.49983,70.625c0.64952,0 1.17605,0.541 1.17605,1.20834c0,0.66735 -0.52653,1.20833 -1.17605,1.20833c-0.64952,0 -1.17605,-0.54099 -1.17605,-1.20833c0,-0.66735 0.52653,-1.20834 1.17605,-1.20834z" fill="#000000" stroke="#000000" stroke-width="0" stroke-linecap="butt"/><path d="M173.99984,69.125c0.64952,0 1.17605,0.541 1.17605,1.20834c0,0.66735 -0.52653,1.20833 -1.17605,1.20833c-0.64952,0 -1.17605,-0.54099 -1.17605,-1.20833c0,-0.66735 0.52653,-1.20834 1.17605,-1.20834z" fill="#000000" stroke="#000000" stroke-width="0" stroke-linecap="butt"/><path d="M232.99984,79.125c0.64952,0 1.17605,0.541 1.17605,1.20834c0,0.66735 -0.52653,1.20833 -1.17605,1.20833c-0.64952,0 -1.17605,-0.54099 -1.17605,-1.20833c0,-0.66735 0.52653,-1.20834 1.17605,-1.20834z" fill="#000000" stroke="#000000" stroke-width="0" stroke-linecap="butt"/><path d="M218.99984,73.125c0.64952,0 1.17605,0.541 1.17605,1.20834c0,0.66735 -0.52653,1.20833 -1.17605,1.20833c-0.64952,0 -1.17605,-0.54099 -1.17605,-1.20833c0,-0.66735 0.52653,-1.20834 1.17605,-1.20834z" fill="#000000" stroke="#000000" stroke-width="0" stroke-linecap="butt"/><path d="M202.99984,69.625c0.64952,0 1.17605,0.541 1.17605,1.20834c0,0.66735 -0.52653,1.20833 -1.17605,1.20833c-0.64952,0 -1.17605,-0.54099 -1.17605,-1.20833c0,-0.66735 0.52653,-1.20834 1.17605,-1.20834z" fill="#000000" stroke="#000000" stroke-width="0" stroke-linecap="butt"/><path d="M187.99984,68.625c0.64952,0 1.17605,0.541 1.17605,1.20834c0,0.66735 -0.52653,1.20833 -1.17605,1.20833c-0.64952,0 -1.17605,-0.54099 -1.17605,-1.20833c0,-0.66735 0.52653,-1.20834 1.17605,-1.20834z" fill="#000000" stroke="#000000" stroke-width="0" stroke-linecap="butt"/><path d="M233.28906,87l8.5,-7v7z" fill="#000000" stroke="none" stroke-width="0" stroke-linecap="butt"/><text transform="translate(236.26637,44.37421) scale(0.5,0.5)" font-size="40" xml:space="preserve" fill="#1343a6" fill-rule="nonzero" stroke="none" stroke-width="1" stroke-linecap="butt" stroke-linejoin="miter" stroke-miterlimit="10" stroke-dasharray="" stroke-dashoffset="0" font-family="Handwriting" font-weight="normal" text-anchor="start" style="mix-blend-mode: normal"><tspan x="0" dy="0">Follow The Arrow</tspan></text></g></g></svg>