<svg version="1.1" xmlns="http://www.w3.org/2000/svg" xmlns:xlink="http://www.w3.org/1999/xlink" width="492.32182" height="265.67914" viewBox="0,0,492.32182,265.67914"><g transform="translate(5.875,-100)"><g data-paper-data="{&quot;isPaintingLayer&quot;:true}" fill="#39d95e" fill-rule="nonzero" stroke="#007d1d" stroke-width="3" stroke-linecap="butt" stroke-linejoin="miter" stroke-miterlimit="10" stroke-dasharray="" stroke-dashoffset="0" style="mix-blend-mode: normal"><path d="M336.67878,276.96959c0,60.35442 -98.62447,53.01247 -98.62447,53.01247c0,0 -94.69855,13.14425 -94.69855,-53.01247c0,-78.55516 42.31979,-175.46959 95.70446,-175.46959c53.38469,0 97.61856,96.91442 97.61856,175.46959z"/><path d="M188.94803,310.10376c0,60.35442 -98.62448,53.01247 -98.62448,53.01247c0,0 -94.69855,13.14424 -94.69855,-53.01247c0,-78.55517 42.31979,-175.46958 95.70447,-175.46958c53.38469,0 97.61856,96.91442 97.61856,175.46958z"/><path d="M484.94682,301.01421c0,60.35442 -98.62447,53.01247 -98.62447,53.01247c0,0 -94.69855,13.14424 -94.69855,-53.01247c0,-78.55517 42.31979,-175.46958 95.70446,-175.46958c53.38469,0 97.61856,96.91442 97.61856,175.46958z"/></g></g></svg>