<svg version="1.1" xmlns="http://www.w3.org/2000/svg" xmlns:xlink="http://www.w3.org/1999/xlink" width="286.17253" height="61.93369" viewBox="0,0,286.17253,61.93369"><g transform="translate(-92.41086,-295.31633)"><g data-paper-data="{&quot;isPaintingLayer&quot;:true}" fill="none" fill-rule="nonzero" stroke="#000000" stroke-width="2.5" stroke-linecap="butt" stroke-linejoin="miter" stroke-miterlimit="10" stroke-dasharray="" stroke-dashoffset="0" style="mix-blend-mode: normal"><g><path d="M94.25002,314.00001l5.73958,-14.5l6.64583,14.5z" data-paper-data="{&quot;origPos&quot;:null}"/><path d="M108.25002,314.00001l5.73959,-14.5l6.64583,14.5z" data-paper-data="{&quot;origPos&quot;:null}"/></g><path d="M121.25002,314.00001l5.73959,-14.5l6.64583,14.5z" data-paper-data="{&quot;origPos&quot;:null}"/><g><g><path d="M164.25001,356.00002l5.73958,-14.5l6.64583,14.5z" data-paper-data="{&quot;origPos&quot;:null}"/><path d="M178.25002,356.00002l5.73959,-14.5l6.64583,14.5z" data-paper-data="{&quot;origPos&quot;:null}"/></g><g data-paper-data="{&quot;origPos&quot;:null}"><path d="M191.25002,356.00002l5.73959,-14.5l6.64583,14.5z" data-paper-data="{&quot;origPos&quot;:null}"/><path d="M205.25002,356.00002l5.73959,-14.5l6.64583,14.5z" data-paper-data="{&quot;origPos&quot;:null}"/></g><path d="M218.25002,356.00002l5.73959,-14.5l6.64583,14.5z" data-paper-data="{&quot;origPos&quot;:null}"/></g><g data-paper-data="{&quot;origPos&quot;:null}"><path d="M350.25002,313.00002l5.73959,-14.5l6.64583,14.5z" data-paper-data="{&quot;origPos&quot;:null}"/><path d="M364.25002,313.00002l5.73959,-14.5l6.64583,14.5z" data-paper-data="{&quot;origPos&quot;:null}"/></g><g><g><path d="M232.25002,356.00002l5.73958,-14.5l6.64583,14.5z" data-paper-data="{&quot;origPos&quot;:null}"/><path d="M246.25002,356.00002l5.73959,-14.5l6.64583,14.5z" data-paper-data="{&quot;origPos&quot;:null}"/></g><g data-paper-data="{&quot;origPos&quot;:null}"><path d="M259.25002,356.00002l5.73959,-14.5l6.64583,14.5z" data-paper-data="{&quot;origPos&quot;:null}"/><path d="M273.25002,356.00002l5.73959,-14.5l6.64583,14.5z" data-paper-data="{&quot;origPos&quot;:null}"/></g><path d="M286.25002,356.00002l5.73959,-14.5l6.64583,14.5z" data-paper-data="{&quot;origPos&quot;:null}"/></g></g></g></svg>