<svg version="1.1" xmlns="http://www.w3.org/2000/svg" xmlns:xlink="http://www.w3.org/1999/xlink" width="479.5" height="170.60006" viewBox="0,0,479.5,170.60006"><g transform="translate(-0.75,-189.65)"><g data-paper-data="{&quot;isPaintingLayer&quot;:true}" fill-rule="nonzero" stroke="#000000" stroke-width="2.5" stroke-linecap="butt" stroke-linejoin="miter" stroke-miterlimit="10" stroke-dasharray="" stroke-dashoffset="0" style="mix-blend-mode: normal"><path d="M2,359.00006v-37h477v37z" data-paper-data="{&quot;origPos&quot;:null}" fill="#17ad00"/><g fill="#cd8a00"><path d="M233.6555,251.56667c2.65861,0 4.81383,2.105 4.81383,4.70163c0,2.59664 -2.15522,4.70162 -4.81383,4.70162c-2.65861,0 -4.81383,-2.10499 -4.81383,-4.70162c0,-2.59664 2.15522,-4.70163 4.81383,-4.70163z" data-paper-data="{&quot;index&quot;:null}"/><path d="M222.98883,250.56667c2.65861,0 4.81382,2.10499 4.81382,4.70163c0,2.59664 -2.15522,4.70163 -4.81382,4.70163c-2.65861,0 -4.81383,-2.10499 -4.81383,-4.70163c0,-2.59664 2.15523,-4.70163 4.81383,-4.70163z" data-paper-data="{&quot;index&quot;:null}"/><path d="M212.32216,246.9c2.65861,0 4.81383,2.10499 4.81383,4.70163c0,2.59664 -2.15522,4.70162 -4.81383,4.70162c-2.65861,0 -4.81383,-2.10499 -4.81383,-4.70162c0,-2.59664 2.15522,-4.70163 4.81383,-4.70163z" data-paper-data="{&quot;index&quot;:null}"/><path d="M258.63599,256.2683c0,2.59663 -2.15522,4.70162 -4.81383,4.70162c-2.65861,0 -4.81383,-2.10498 -4.81383,-4.70162c0,-2.59663 2.15522,-4.70163 4.81383,-4.70163c2.65861,0 4.81383,2.10499 4.81383,4.70163z" data-paper-data="{&quot;index&quot;:null}"/><path d="M269.30266,255.2683c0,2.59664 -2.15522,4.70163 -4.81383,4.70163c-2.6586,0 -4.81382,-2.10499 -4.81382,-4.70163c0,-2.59664 2.15521,-4.70163 4.81382,-4.70163c2.6586,0 4.81383,2.10499 4.81383,4.70163z" data-paper-data="{&quot;index&quot;:null}"/><path d="M279.96933,251.60163c0,2.59663 -2.15522,4.70162 -4.81383,4.70162c-2.65861,0 -4.81383,-2.10498 -4.81383,-4.70162c0,-2.59664 2.15522,-4.70163 4.81383,-4.70163c2.65861,0 4.81383,2.10499 4.81383,4.70163z" data-paper-data="{&quot;index&quot;:null}"/><path d="M243.4055,252.56667c2.65861,0 4.81383,2.105 4.81383,4.70163c0,2.59664 -2.15522,4.70162 -4.81383,4.70162c-2.65861,0 -4.81383,-2.10499 -4.81383,-4.70162c0,-2.59664 2.15522,-4.70163 4.81383,-4.70163z" data-paper-data="{&quot;index&quot;:null}"/></g><g fill="#cd8a00"><path d="M368.6555,195.56667c2.65861,0 4.81383,2.105 4.81383,4.70163c0,2.59664 -2.15522,4.70162 -4.81383,4.70162c-2.65861,0 -4.81383,-2.10499 -4.81383,-4.70162c0,-2.59664 2.15522,-4.70163 4.81383,-4.70163z" data-paper-data="{&quot;index&quot;:null}"/><path d="M357.98883,194.56667c2.65861,0 4.81382,2.10499 4.81382,4.70163c0,2.59664 -2.15522,4.70163 -4.81382,4.70163c-2.65861,0 -4.81383,-2.10499 -4.81383,-4.70163c0,-2.59664 2.15523,-4.70163 4.81383,-4.70163z" data-paper-data="{&quot;index&quot;:null}"/><path d="M347.32216,190.9c2.65861,0 4.81383,2.10499 4.81383,4.70163c0,2.59664 -2.15522,4.70162 -4.81383,4.70162c-2.65861,0 -4.81383,-2.10499 -4.81383,-4.70162c0,-2.59664 2.15522,-4.70163 4.81383,-4.70163z" data-paper-data="{&quot;index&quot;:null}"/><path d="M393.63599,200.2683c0,2.59663 -2.15522,4.70162 -4.81383,4.70162c-2.65861,0 -4.81383,-2.10498 -4.81383,-4.70162c0,-2.59663 2.15522,-4.70163 4.81383,-4.70163c2.65861,0 4.81383,2.10499 4.81383,4.70163z" data-paper-data="{&quot;index&quot;:null}"/><path d="M404.30266,199.2683c0,2.59664 -2.15522,4.70163 -4.81383,4.70163c-2.6586,0 -4.81382,-2.10499 -4.81382,-4.70163c0,-2.59664 2.15521,-4.70163 4.81382,-4.70163c2.6586,0 4.81383,2.10499 4.81383,4.70163z" data-paper-data="{&quot;index&quot;:null}"/><path d="M414.96933,195.60163c0,2.59663 -2.15522,4.70162 -4.81383,4.70162c-2.65861,0 -4.81383,-2.10498 -4.81383,-4.70162c0,-2.59664 2.15522,-4.70163 4.81383,-4.70163c2.65861,0 4.81383,2.10499 4.81383,4.70163z" data-paper-data="{&quot;index&quot;:null}"/><path d="M378.4055,196.56667c2.65861,0 4.81383,2.105 4.81383,4.70163c0,2.59664 -2.15522,4.70162 -4.81383,4.70162c-2.65861,0 -4.81383,-2.10499 -4.81383,-4.70162c0,-2.59664 2.15522,-4.70163 4.81383,-4.70163z" data-paper-data="{&quot;index&quot;:null}"/></g><g fill="#cd8a00"><path d="M83.6555,198.56667c2.65861,0 4.81383,2.105 4.81383,4.70163c0,2.59664 -2.15522,4.70162 -4.81383,4.70162c-2.65861,0 -4.81383,-2.10499 -4.81383,-4.70162c0,-2.59664 2.15522,-4.70163 4.81383,-4.70163z" data-paper-data="{&quot;index&quot;:null}"/><path d="M72.98883,197.56667c2.65861,0 4.81382,2.10499 4.81382,4.70163c0,2.59664 -2.15522,4.70163 -4.81382,4.70163c-2.65861,0 -4.81383,-2.10499 -4.81383,-4.70163c0,-2.59664 2.15523,-4.70163 4.81383,-4.70163z" data-paper-data="{&quot;index&quot;:null}"/><path d="M62.32216,193.9c2.65861,0 4.81383,2.10499 4.81383,4.70163c0,2.59664 -2.15522,4.70162 -4.81383,4.70162c-2.65861,0 -4.81383,-2.10499 -4.81383,-4.70162c0,-2.59664 2.15522,-4.70163 4.81383,-4.70163z" data-paper-data="{&quot;index&quot;:null}"/><path d="M108.63599,203.2683c0,2.59663 -2.15522,4.70162 -4.81383,4.70162c-2.65861,0 -4.81383,-2.10498 -4.81383,-4.70162c0,-2.59663 2.15522,-4.70163 4.81383,-4.70163c2.65861,0 4.81383,2.10499 4.81383,4.70163z" data-paper-data="{&quot;index&quot;:null}"/><path d="M119.30266,202.2683c0,2.59664 -2.15522,4.70163 -4.81383,4.70163c-2.6586,0 -4.81382,-2.10499 -4.81382,-4.70163c0,-2.59664 2.15521,-4.70163 4.81382,-4.70163c2.6586,0 4.81383,2.10499 4.81383,4.70163z" data-paper-data="{&quot;index&quot;:null}"/><path d="M129.96933,198.60163c0,2.59663 -2.15522,4.70162 -4.81383,4.70162c-2.65861,0 -4.81383,-2.10498 -4.81383,-4.70162c0,-2.59664 2.15522,-4.70163 4.81383,-4.70163c2.65861,0 4.81383,2.10499 4.81383,4.70163z" data-paper-data="{&quot;index&quot;:null}"/><path d="M93.4055,199.56667c2.65861,0 4.81383,2.105 4.81383,4.70163c0,2.59664 -2.15522,4.70162 -4.81383,4.70162c-2.65861,0 -4.81383,-2.10499 -4.81383,-4.70162c0,-2.59664 2.15522,-4.70163 4.81383,-4.70163z" data-paper-data="{&quot;index&quot;:null}"/></g></g></g></svg>