<svg version="1.1" xmlns="http://www.w3.org/2000/svg" xmlns:xlink="http://www.w3.org/1999/xlink" width="317.22143" height="360.45035" viewBox="0,0,317.22143,360.45035"><g transform="translate(-82.84346,45.00292)"><g data-paper-data="{&quot;isPaintingLayer&quot;:true}" fill="none" fill-rule="nonzero" stroke="#000000" stroke-width="2.5" stroke-linecap="butt" stroke-linejoin="miter" stroke-miterlimit="10" stroke-dasharray="" stroke-dashoffset="0" style="mix-blend-mode: normal"><g><g><g><path d="M100.62728,278.98053l-14.46692,-6.71753l14.52824,-5.66774z" data-paper-data="{&quot;origPos&quot;:null}"/><path d="M100.56292,291.98037l-14.46692,-6.71753l14.52824,-5.66774z" data-paper-data="{&quot;origPos&quot;:null}"/></g><path d="M100.49362,305.98019l-14.46692,-6.71753l14.52824,-5.66774z" data-paper-data="{&quot;origPos&quot;:null}"/><path d="M100.82034,239.98101l-14.46692,-6.71753l14.52824,-5.66774z" data-paper-data="{&quot;origPos&quot;:null}"/><g><path d="M100.75104,253.98084l-14.46692,-6.71753l14.52824,-5.66774z" data-paper-data="{&quot;origPos&quot;:null}"/><path d="M100.68668,266.98068l-14.46692,-6.71753l14.52824,-5.66774z" data-paper-data="{&quot;origPos&quot;:null}"/></g></g><g><path d="M113.21976,266.59527l14.52824,5.66774l-14.46692,6.71753z" data-paper-data="{&quot;origPos&quot;:null}"/><path d="M113.28412,279.59511l14.52824,5.66774l-14.46692,6.71753z" data-paper-data="{&quot;origPos&quot;:null}"/></g><path d="M113.0267,227.59575l14.52824,5.66774l-14.46692,6.71753z" data-paper-data="{&quot;origPos&quot;:null}"/><g><path d="M113.096,241.59558l14.52824,5.66774l-14.46692,6.71753z" data-paper-data="{&quot;origPos&quot;:null}"/><path d="M113.16036,254.59542l14.52824,5.66774l-14.46692,6.71753z" data-paper-data="{&quot;origPos&quot;:null}"/></g><g><path d="M190.62728,279.98053l-14.46692,-6.71753l14.52824,-5.66774z" data-paper-data="{&quot;origPos&quot;:null}"/><path d="M190.56292,292.98037l-14.46692,-6.71753l14.52824,-5.66774z" data-paper-data="{&quot;origPos&quot;:null}"/></g><path d="M190.82034,240.98102l-14.46692,-6.71753l14.52824,-5.66774z" data-paper-data="{&quot;origPos&quot;:null}"/><g><path d="M190.75104,254.98085l-14.46692,-6.71753l14.52824,-5.66774z" data-paper-data="{&quot;origPos&quot;:null}"/><path d="M190.68668,267.98069l-14.46692,-6.71753l14.52824,-5.66774z" data-paper-data="{&quot;origPos&quot;:null}"/></g><path d="M203.21976,267.59527l14.52824,5.66774l-14.46692,6.71753z" data-paper-data="{&quot;origPos&quot;:null}"/><path d="M203.28412,280.59511l14.52824,5.66774l-14.46692,6.71753z" data-paper-data="{&quot;origPos&quot;:null}"/><path d="M203.0267,228.59575l14.52824,5.66774l-14.46692,6.71753z" data-paper-data="{&quot;origPos&quot;:null}"/><path d="M203.096,242.59558l14.52824,5.66774l-14.46692,6.71753z" data-paper-data="{&quot;origPos&quot;:null}"/><path d="M203.16036,255.59542l14.52824,5.66774l-14.46692,6.71753z" data-paper-data="{&quot;origPos&quot;:null}"/><g><g><path d="M152.0735,313.85642l5.6183,-14.54743l6.76669,14.44399z" data-paper-data="{&quot;origPos&quot;:null}"/><path d="M165.07304,313.74785l5.6183,-14.54743l6.76669,14.44399z" data-paper-data="{&quot;origPos&quot;:null}"/></g><path d="M179.07255,313.63094l5.6183,-14.54743l6.76669,14.44399z" data-paper-data="{&quot;origPos&quot;:null}"/><path d="M113.07486,314.18212l5.6183,-14.54743l6.76669,14.44399z" data-paper-data="{&quot;origPos&quot;:null}"/><g><path d="M127.07437,314.0652l5.6183,-14.54743l6.76669,14.44399z" data-paper-data="{&quot;origPos&quot;:null}"/><path d="M140.07392,313.95662l5.6183,-14.54743l6.76669,14.44399z" data-paper-data="{&quot;origPos&quot;:null}"/></g></g><g><path d="M279.62728,278.64719l-14.46692,-6.71753l14.52824,-5.66774z" data-paper-data="{&quot;origPos&quot;:null}"/><path d="M279.56291,291.64703l-14.46692,-6.71753l14.52824,-5.66774z" data-paper-data="{&quot;origPos&quot;:null}"/></g><path d="M279.82034,239.64767l-14.46692,-6.71753l14.52824,-5.66774z" data-paper-data="{&quot;origPos&quot;:null}"/><g><path d="M279.75104,253.6475l-14.46692,-6.71753l14.52824,-5.66774z" data-paper-data="{&quot;origPos&quot;:null}"/><path d="M279.68667,266.64734l-14.46692,-6.71753l14.52824,-5.66774z" data-paper-data="{&quot;origPos&quot;:null}"/></g><g><path d="M292.21976,266.26193l14.52824,5.66774l-14.46692,6.71753z" data-paper-data="{&quot;origPos&quot;:null}"/><path d="M292.28412,279.26177l14.52824,5.66774l-14.46692,6.71753z" data-paper-data="{&quot;origPos&quot;:null}"/></g><path d="M292.0267,227.26241l14.52824,5.66774l-14.46692,6.71753z" data-paper-data="{&quot;origPos&quot;:null}"/><g><path d="M292.096,241.26224l14.52824,5.66774l-14.46692,6.71753z" data-paper-data="{&quot;origPos&quot;:null}"/><path d="M292.16036,254.26208l14.52824,5.66774l-14.46692,6.71753z" data-paper-data="{&quot;origPos&quot;:null}"/></g><g><path d="M369.62728,279.6472l-14.46692,-6.71753l14.52824,-5.66774z" data-paper-data="{&quot;origPos&quot;:null}"/><path d="M369.56292,292.64704l-14.46692,-6.71753l14.52824,-5.66774z" data-paper-data="{&quot;origPos&quot;:null}"/></g><path d="M369.82034,240.64768l-14.46692,-6.71753l14.52824,-5.66774z" data-paper-data="{&quot;origPos&quot;:null}"/><g><path d="M369.75104,254.64751l-14.46692,-6.71753l14.52824,-5.66774z" data-paper-data="{&quot;origPos&quot;:null}"/><path d="M369.68668,267.64735l-14.46692,-6.71753l14.52824,-5.66774z" data-paper-data="{&quot;origPos&quot;:null}"/></g><g data-paper-data="{&quot;index&quot;:null}"><g><path d="M382.21976,267.26193l14.52824,5.66774l-14.46692,6.71753z" data-paper-data="{&quot;origPos&quot;:null}"/><path d="M382.28412,280.26177l14.52824,5.66774l-14.46692,6.71753z" data-paper-data="{&quot;origPos&quot;:null}"/></g><path d="M382.35342,294.2616l14.52824,5.66774l-14.46692,6.71753z" data-paper-data="{&quot;origPos&quot;:null}"/><path d="M382.0267,228.26241l14.52824,5.66774l-14.46692,6.71753z" data-paper-data="{&quot;origPos&quot;:null}"/><g><path d="M382.096,242.26224l14.52824,5.66774l-14.46692,6.71753z" data-paper-data="{&quot;origPos&quot;:null}"/><path d="M382.16036,255.26208l14.52824,5.66774l-14.46692,6.71753z" data-paper-data="{&quot;origPos&quot;:null}"/></g></g><g><g><path d="M331.07349,313.52308l5.6183,-14.54743l6.76669,14.44399z" data-paper-data="{&quot;origPos&quot;:null}"/><path d="M344.07304,313.41451l5.6183,-14.54743l6.76669,14.44399z" data-paper-data="{&quot;origPos&quot;:null}"/></g><path d="M358.07255,313.2976l5.6183,-14.54743l6.76669,14.44399z" data-paper-data="{&quot;origPos&quot;:null}"/><path d="M292.07486,313.84878l5.6183,-14.54743l6.76669,14.44399z" data-paper-data="{&quot;origPos&quot;:null}"/><g><path d="M306.07437,313.73186l5.6183,-14.54743l6.76669,14.44399z" data-paper-data="{&quot;origPos&quot;:null}"/><path d="M319.07392,313.62329l5.6183,-14.54743l6.76669,14.44399z" data-paper-data="{&quot;origPos&quot;:null}"/></g></g><g><g><path d="M242.0735,313.18974l5.6183,-14.54743l6.76669,14.44399z" data-paper-data="{&quot;origPos&quot;:null}"/><path d="M255.07304,313.08117l5.6183,-14.54743l6.76669,14.44399z" data-paper-data="{&quot;origPos&quot;:null}"/></g><path d="M269.07255,312.96426l5.6183,-14.54743l6.76669,14.44399z" data-paper-data="{&quot;origPos&quot;:null}"/><path d="M203.07486,313.51544l5.6183,-14.54743l6.76669,14.44399z" data-paper-data="{&quot;origPos&quot;:null}"/><g><path d="M217.07437,313.39852l5.6183,-14.54743l6.76669,14.44399z" data-paper-data="{&quot;origPos&quot;:null}"/><path d="M230.07392,313.28995l5.6183,-14.54743l6.76669,14.44399z" data-paper-data="{&quot;origPos&quot;:null}"/></g></g></g><g><g><path d="M100.6886,3.84926l-14.52824,-5.66774l14.46692,-6.71753z" data-paper-data="{&quot;origPos&quot;:null}"/><path d="M100.62424,-9.15058l-14.52824,-5.66774l14.46692,-6.71753z" data-paper-data="{&quot;origPos&quot;:null}"/></g><path d="M100.55494,-23.1504l-14.52824,-5.66774l14.46692,-6.71753z" data-paper-data="{&quot;origPos&quot;:null}"/><path d="M100.88166,42.84878l-14.52824,-5.66774l14.46692,-6.71753z" data-paper-data="{&quot;origPos&quot;:null}"/><g><path d="M100.81236,28.84895l-14.52824,-5.66774l14.46692,-6.71753z" data-paper-data="{&quot;origPos&quot;:null}"/><path d="M100.748,15.84911l-14.52824,-5.66774l14.46692,-6.71753z" data-paper-data="{&quot;origPos&quot;:null}"/></g></g><g><path d="M113.28108,-8.53602l14.46692,6.71753l-14.52824,5.66774z" data-paper-data="{&quot;origPos&quot;:null}"/><path d="M113.34544,-21.53586l14.46692,6.71753l-14.52824,5.66774z" data-paper-data="{&quot;origPos&quot;:null}"/></g><path d="M113.08802,30.4635l14.46692,6.71753l-14.52824,5.66774z" data-paper-data="{&quot;origPos&quot;:null}"/><g><path d="M113.15732,16.46367l14.46692,6.71753l-14.52824,5.66774z" data-paper-data="{&quot;origPos&quot;:null}"/><path d="M113.22168,3.46383l14.46692,6.71753l-14.52824,5.66774z" data-paper-data="{&quot;origPos&quot;:null}"/></g><g><path d="M189.6886,2.84926l-14.52824,-5.66774l14.46692,-6.71753z" data-paper-data="{&quot;origPos&quot;:null}"/><path d="M189.62424,-10.15058l-14.52824,-5.66774l14.46692,-6.71753z" data-paper-data="{&quot;origPos&quot;:null}"/></g><path d="M189.88166,41.84877l-14.52824,-5.66774l14.46692,-6.71753z" data-paper-data="{&quot;origPos&quot;:null}"/><g><path d="M189.81236,27.84894l-14.52824,-5.66774l14.46692,-6.71753z" data-paper-data="{&quot;origPos&quot;:null}"/><path d="M189.748,14.8491l-14.52824,-5.66774l14.46692,-6.71753z" data-paper-data="{&quot;origPos&quot;:null}"/></g><path d="M202.28108,-9.53602l14.46692,6.71753l-14.52824,5.66774z" data-paper-data="{&quot;origPos&quot;:null}"/><path d="M202.34544,-22.53586l14.46692,6.71753l-14.52824,5.66774z" data-paper-data="{&quot;origPos&quot;:null}"/><path d="M202.08802,29.4635l14.46692,6.71753l-14.52824,5.66774z" data-paper-data="{&quot;origPos&quot;:null}"/><path d="M202.15732,15.46367l14.46692,6.71753l-14.52824,5.66774z" data-paper-data="{&quot;origPos&quot;:null}"/><path d="M202.22168,2.46383l14.46692,6.71753l-14.52824,5.66774z" data-paper-data="{&quot;origPos&quot;:null}"/><g><g><path d="M164.45849,-43.30846l-6.76669,14.44399l-5.6183,-14.54743z" data-paper-data="{&quot;origPos&quot;:null}"/><path d="M177.45803,-43.19989l-6.76669,14.44399l-5.6183,-14.54743z" data-paper-data="{&quot;origPos&quot;:null}"/></g><path d="M191.45754,-43.08298l-6.76669,14.44399l-5.6183,-14.54743z" data-paper-data="{&quot;origPos&quot;:null}"/><path d="M125.45985,-43.63416l-6.76669,14.44399l-5.6183,-14.54743z" data-paper-data="{&quot;origPos&quot;:null}"/><g><path d="M139.45935,-43.51724l-6.76669,14.44399l-5.6183,-14.54743z" data-paper-data="{&quot;origPos&quot;:null}"/><path d="M152.4589,-43.40866l-6.76669,14.44399l-5.6183,-14.54743z" data-paper-data="{&quot;origPos&quot;:null}"/></g></g><g><path d="M279.6886,4.1826l-14.52824,-5.66774l14.46692,-6.71753z" data-paper-data="{&quot;origPos&quot;:null}"/><path d="M279.62424,-8.81724l-14.52824,-5.66774l14.46692,-6.71753z" data-paper-data="{&quot;origPos&quot;:null}"/></g><path d="M279.88166,43.18212l-14.52824,-5.66774l14.46692,-6.71753z" data-paper-data="{&quot;origPos&quot;:null}"/><g><path d="M279.81236,29.18229l-14.52824,-5.66774l14.46692,-6.71753z" data-paper-data="{&quot;origPos&quot;:null}"/><path d="M279.748,16.18245l-14.52824,-5.66774l14.46692,-6.71753z" data-paper-data="{&quot;origPos&quot;:null}"/></g><g><path d="M292.28108,-8.20268l14.46692,6.71753l-14.52824,5.66774z" data-paper-data="{&quot;origPos&quot;:null}"/><path d="M292.34544,-21.20252l14.46692,6.71753l-14.52824,5.66774z" data-paper-data="{&quot;origPos&quot;:null}"/></g><path d="M292.08802,30.79684l14.46692,6.71753l-14.52824,5.66774z" data-paper-data="{&quot;origPos&quot;:null}"/><g><path d="M292.15732,16.79701l14.46692,6.71753l-14.52824,5.66774z" data-paper-data="{&quot;origPos&quot;:null}"/><path d="M292.22168,3.79717l14.46692,6.71753l-14.52824,5.66774z" data-paper-data="{&quot;origPos&quot;:null}"/></g><g><path d="M368.6886,3.18259l-14.52824,-5.66774l14.46692,-6.71753z" data-paper-data="{&quot;origPos&quot;:null}"/><path d="M368.62424,-9.81725l-14.52824,-5.66774l14.46692,-6.71753z" data-paper-data="{&quot;origPos&quot;:null}"/></g><path d="M368.88166,42.18211l-14.52824,-5.66774l14.46692,-6.71753z" data-paper-data="{&quot;origPos&quot;:null}"/><g><path d="M368.81236,28.18228l-14.52824,-5.66774l14.46692,-6.71753z" data-paper-data="{&quot;origPos&quot;:null}"/><path d="M368.748,15.18244l-14.52824,-5.66774l14.46692,-6.71753z" data-paper-data="{&quot;origPos&quot;:null}"/></g><g data-paper-data="{&quot;index&quot;:null}"><g><path d="M381.28108,-9.20268l14.46692,6.71753l-14.52824,5.66774z" data-paper-data="{&quot;origPos&quot;:null}"/><path d="M381.34544,-22.20252l14.46692,6.71753l-14.52824,5.66774z" data-paper-data="{&quot;origPos&quot;:null}"/></g><path d="M381.41474,-36.20235l14.46692,6.71753l-14.52824,5.66774z" data-paper-data="{&quot;origPos&quot;:null}"/><path d="M381.08802,29.79684l14.46692,6.71753l-14.52824,5.66774z" data-paper-data="{&quot;origPos&quot;:null}"/><g><path d="M381.15732,15.79701l14.46692,6.71753l-14.52824,5.66774z" data-paper-data="{&quot;origPos&quot;:null}"/><path d="M381.22168,2.79717l14.46692,6.71753l-14.52824,5.66774z" data-paper-data="{&quot;origPos&quot;:null}"/></g></g><g><g><path d="M342.45849,-42.97512l-6.76669,14.44399l-5.6183,-14.54743z" data-paper-data="{&quot;origPos&quot;:null}"/><path d="M355.45803,-42.86655l-6.76669,14.44399l-5.6183,-14.54743z" data-paper-data="{&quot;origPos&quot;:null}"/></g><path d="M369.45754,-42.74964l-6.76669,14.44399l-5.6183,-14.54743z" data-paper-data="{&quot;origPos&quot;:null}"/><path d="M303.45984,-43.30082l-6.76669,14.44399l-5.6183,-14.54743z" data-paper-data="{&quot;origPos&quot;:null}"/><g><path d="M317.45936,-43.1839l-6.76669,14.44399l-5.6183,-14.54743z" data-paper-data="{&quot;origPos&quot;:null}"/><path d="M330.45891,-43.07533l-6.76669,14.44399l-5.6183,-14.54743z" data-paper-data="{&quot;origPos&quot;:null}"/></g></g><g><g><path d="M254.45849,-42.64178l-6.76669,14.44399l-5.6183,-14.54743z" data-paper-data="{&quot;origPos&quot;:null}"/><path d="M267.45803,-42.53321l-6.76669,14.44399l-5.6183,-14.54743z" data-paper-data="{&quot;origPos&quot;:null}"/></g><path d="M281.45754,-42.4163l-6.76669,14.44399l-5.6183,-14.54743z" data-paper-data="{&quot;origPos&quot;:null}"/><path d="M215.45985,-42.96748l-6.76669,14.44399l-5.6183,-14.54743z" data-paper-data="{&quot;origPos&quot;:null}"/><g><path d="M229.45936,-42.85056l-6.76669,14.44399l-5.6183,-14.54743z" data-paper-data="{&quot;origPos&quot;:null}"/><path d="M242.45891,-42.74199l-6.76669,14.44399l-5.6183,-14.54743z" data-paper-data="{&quot;origPos&quot;:null}"/></g></g><path d="M112.50562,143.08315l-5.8521,12.50212l-4.86626,-12.58821z"/><path d="M201.17229,141.74982l-5.85209,12.50212l-4.86626,-12.58821z"/><path d="M291.17229,142.08315l-5.85209,12.50212l-4.86626,-12.58821z"/><path d="M380.17229,141.74982l-5.85209,12.50212l-4.86626,-12.58821z"/></g></g></svg>