<svg version="1.1" xmlns="http://www.w3.org/2000/svg" xmlns:xlink="http://www.w3.org/1999/xlink" width="325.17253" height="18.93371" viewBox="0,0,325.17253,18.93371"><g transform="translate(-100.41085,-295.31631)"><g data-paper-data="{&quot;isPaintingLayer&quot;:true}" fill="none" fill-rule="nonzero" stroke="#000000" stroke-width="2.5" stroke-linecap="butt" stroke-linejoin="miter" stroke-miterlimit="10" stroke-dasharray="" stroke-dashoffset="0" style="mix-blend-mode: normal"><g><g><g><path d="M102.25001,313.00001l5.73958,-14.5l6.64583,14.5z" data-paper-data="{&quot;origPos&quot;:null}"/><path d="M116.25001,313.00001l5.73959,-14.5l6.64583,14.5z" data-paper-data="{&quot;origPos&quot;:null}"/></g><g data-paper-data="{&quot;origPos&quot;:null}"><path d="M129.25,313.00001l5.73959,-14.5l6.64583,14.5z" data-paper-data="{&quot;origPos&quot;:null}"/><path d="M143.25,313.00001l5.73959,-14.5l6.64583,14.5z" data-paper-data="{&quot;origPos&quot;:null}"/></g><path d="M156.25,313.00001l5.73959,-14.5l6.64583,14.5z" data-paper-data="{&quot;origPos&quot;:null}"/></g><g><path d="M168.25001,313.00002l5.73958,-14.5l6.64583,14.5z" data-paper-data="{&quot;origPos&quot;:null}"/><path d="M182.25001,313.00002l5.73959,-14.5l6.64583,14.5z" data-paper-data="{&quot;origPos&quot;:null}"/></g><g data-paper-data="{&quot;origPos&quot;:null}"><path d="M195.25001,313.00002l5.73959,-14.5l6.64583,14.5z" data-paper-data="{&quot;origPos&quot;:null}"/><path d="M209.25001,313.00002l5.73959,-14.5l6.64583,14.5z" data-paper-data="{&quot;origPos&quot;:null}"/></g><path d="M222.25001,313.00002l5.73959,-14.5l6.64583,14.5z" data-paper-data="{&quot;origPos&quot;:null}"/><path d="M234.25001,313.00002l5.73959,-14.5l6.64583,14.5z" data-paper-data="{&quot;origPos&quot;:null}"/></g><g><g><g><path d="M266.25001,313.00001l5.73958,-14.5l6.64583,14.5z" data-paper-data="{&quot;origPos&quot;:null}"/><path d="M280.25001,313.00001l5.73959,-14.5l6.64583,14.5z" data-paper-data="{&quot;origPos&quot;:null}"/></g><g data-paper-data="{&quot;origPos&quot;:null}"><path d="M293.25001,313.00001l5.73959,-14.5l6.64583,14.5z" data-paper-data="{&quot;origPos&quot;:null}"/><path d="M307.25001,313.00001l5.73959,-14.5l6.64583,14.5z" data-paper-data="{&quot;origPos&quot;:null}"/></g><path d="M320.25001,313.00001l5.73959,-14.5l6.64583,14.5z" data-paper-data="{&quot;origPos&quot;:null}"/></g><g><path d="M332.25001,313.00002l5.73958,-14.5l6.64583,14.5z" data-paper-data="{&quot;origPos&quot;:null}"/><path d="M346.25001,313.00002l5.73959,-14.5l6.64583,14.5z" data-paper-data="{&quot;origPos&quot;:null}"/></g><g data-paper-data="{&quot;origPos&quot;:null}"><path d="M359.25001,313.00002l5.73959,-14.5l6.64583,14.5z" data-paper-data="{&quot;origPos&quot;:null}"/><path d="M373.25001,313.00002l5.73959,-14.5l6.64583,14.5z" data-paper-data="{&quot;origPos&quot;:null}"/></g><path d="M386.25001,313.00002l5.73959,-14.5l6.64583,14.5z" data-paper-data="{&quot;origPos&quot;:null}"/><path d="M398.25001,313.00002l5.73959,-14.5l6.64583,14.5z" data-paper-data="{&quot;origPos&quot;:null}"/><path d="M411.25001,313.00002l5.73959,-14.5l6.64583,14.5z"/></g></g></g></svg>