<svg version="1.1" xmlns="http://www.w3.org/2000/svg" xmlns:xlink="http://www.w3.org/1999/xlink" width="483.5" height="252.66669" viewBox="0,0,483.5,252.66669"><g transform="translate(0.25,-107.58334)"><g data-paper-data="{&quot;isPaintingLayer&quot;:true}" fill="none" fill-rule="nonzero" stroke="#000000" stroke-width="2.5" stroke-linecap="butt" stroke-linejoin="miter" stroke-miterlimit="10" stroke-dasharray="" stroke-dashoffset="0" style="mix-blend-mode: normal"><path d="M1,359.00004v-37h481v37z" data-paper-data="{&quot;origPos&quot;:null}"/><path d="M206.54212,322.16668v-213.33334h13.16875v213.33334z"/><path d="M78.70102,216.50396c0,2.05228 -1.70342,3.71599 -3.80468,3.71599c-2.10126,0 -3.80467,-1.6637 -3.80467,-3.71599c0,-2.05228 1.70341,-3.716 3.80467,-3.716c2.10126,0 3.80468,1.66371 3.80468,3.716z"/><path d="M141.9301,132.53268c0,2.05228 -1.70342,3.716 -3.80468,3.716c-2.10126,0 -3.80467,-1.66371 -3.80467,-3.716c0,-2.05228 1.70341,-3.71599 3.80467,-3.71599c2.10126,0 3.80468,1.6637 3.80468,3.71599z"/><path d="M362,243.00004v-76h118v76z"/></g></g></svg>