<svg version="1.1" xmlns="http://www.w3.org/2000/svg" xmlns:xlink="http://www.w3.org/1999/xlink" width="131.37489" height="136.1713" viewBox="0,0,131.37489,136.1713"><g transform="translate(-102.41085,-173.07364)"><g data-paper-data="{&quot;isPaintingLayer&quot;:true}" fill="none" fill-rule="nonzero" stroke="#000000" stroke-width="2.5" stroke-linecap="butt" stroke-linejoin="miter" stroke-miterlimit="10" stroke-dasharray="" stroke-dashoffset="0" style="mix-blend-mode: normal"><g><path d="M116.63542,255.50001l-6.64583,14.5l-5.73958,-14.5z" data-paper-data="{&quot;origPos&quot;:null}"/><path d="M130.63543,255.50001l-6.64583,14.5l-5.73959,-14.5z" data-paper-data="{&quot;origPos&quot;:null}"/></g><g data-paper-data="{&quot;origPos&quot;:null}"><path d="M143.63543,255.50001l-6.64583,14.5l-5.73959,-14.5z" data-paper-data="{&quot;origPos&quot;:null}"/><path d="M157.63543,255.50001l-6.64583,14.5l-5.73959,-14.5z" data-paper-data="{&quot;origPos&quot;:null}"/></g><g><g><g><path d="M232.52791,307.41112l-14.52432,-5.67775l14.47155,-6.70755z" data-paper-data="{&quot;origPos&quot;:null}"/><path d="M232.46827,293.41125l-14.52432,-5.67776l14.47155,-6.70755z" data-paper-data="{&quot;origPos&quot;:null}"/></g><g data-paper-data="{&quot;origPos&quot;:null}"><path d="M232.41288,280.41137l-14.52432,-5.67776l14.47155,-6.70755z" data-paper-data="{&quot;origPos&quot;:null}"/><path d="M232.35324,266.41149l-14.52432,-5.67776l14.47155,-6.70755z" data-paper-data="{&quot;origPos&quot;:null}"/></g><path d="M232.29785,253.41161l-14.52432,-5.67776l14.47155,-6.70755z" data-paper-data="{&quot;origPos&quot;:null}"/></g><g><path d="M232.24673,241.41172l-14.52432,-5.67775l14.47155,-6.70755z" data-paper-data="{&quot;origPos&quot;:null}"/><path d="M232.18709,227.41185l-14.52432,-5.67776l14.47155,-6.70755z" data-paper-data="{&quot;origPos&quot;:null}"/></g><g data-paper-data="{&quot;origPos&quot;:null}"><path d="M232.1317,214.41197l-14.52432,-5.67776l14.47155,-6.70755z" data-paper-data="{&quot;origPos&quot;:null}"/><path d="M232.07206,200.41209l-14.52432,-5.67776l14.47155,-6.70755z" data-paper-data="{&quot;origPos&quot;:null}"/></g><path d="M232.01667,187.41221l-14.52432,-5.67776l14.47155,-6.70755z" data-paper-data="{&quot;origPos&quot;:null}"/></g></g></g></svg>