<svg version="1.1" xmlns="http://www.w3.org/2000/svg" xmlns:xlink="http://www.w3.org/1999/xlink" width="182.47669" height="191.1713" viewBox="0,0,182.47669,191.1713"><g transform="translate(-163.30905,-120.07363)"><g data-paper-data="{&quot;isPaintingLayer&quot;:true}" fill="none" fill-rule="nonzero" stroke="#000000" stroke-width="2.5" stroke-linecap="butt" stroke-linejoin="miter" stroke-miterlimit="10" stroke-dasharray="" stroke-dashoffset="0" style="mix-blend-mode: normal"><g><g><g><path d="M181.52791,307.41112l-14.52432,-5.67775l14.47155,-6.70755z" data-paper-data="{&quot;origPos&quot;:null}"/><path d="M181.46827,293.41125l-14.52432,-5.67776l14.47155,-6.70755z" data-paper-data="{&quot;origPos&quot;:null}"/></g><g data-paper-data="{&quot;origPos&quot;:null}"><path d="M181.41288,280.41137l-14.52432,-5.67776l14.47155,-6.70755z" data-paper-data="{&quot;origPos&quot;:null}"/><path d="M181.35324,266.41149l-14.52432,-5.67776l14.47155,-6.70755z" data-paper-data="{&quot;origPos&quot;:null}"/></g><path d="M181.29785,253.41161l-14.52432,-5.67776l14.47155,-6.70755z" data-paper-data="{&quot;origPos&quot;:null}"/></g><g><path d="M181.24673,241.41172l-14.52432,-5.67775l14.47155,-6.70755z" data-paper-data="{&quot;origPos&quot;:null}"/><path d="M181.18709,227.41185l-14.52432,-5.67776l14.47155,-6.70755z" data-paper-data="{&quot;origPos&quot;:null}"/></g><g data-paper-data="{&quot;origPos&quot;:null}"><path d="M181.1317,214.41197l-14.52432,-5.67776l14.47155,-6.70755z" data-paper-data="{&quot;origPos&quot;:null}"/><path d="M181.07206,200.41209l-14.52432,-5.67776l14.47155,-6.70755z" data-paper-data="{&quot;origPos&quot;:null}"/></g><path d="M181.01667,187.41221l-14.52432,-5.67776l14.47155,-6.70755z" data-paper-data="{&quot;origPos&quot;:null}"/></g><g><g><g><path d="M259.52791,254.41112l-14.52432,-5.67775l14.47155,-6.70755z" data-paper-data="{&quot;origPos&quot;:null}"/><path d="M259.46827,240.41125l-14.52432,-5.67776l14.47155,-6.70755z" data-paper-data="{&quot;origPos&quot;:null}"/></g><g data-paper-data="{&quot;origPos&quot;:null}"><path d="M259.41288,227.41137l-14.52432,-5.67776l14.47155,-6.70755z" data-paper-data="{&quot;origPos&quot;:null}"/><path d="M259.35324,213.41149l-14.52432,-5.67776l14.47155,-6.70755z" data-paper-data="{&quot;origPos&quot;:null}"/></g><path d="M259.29785,200.41161l-14.52432,-5.67776l14.47155,-6.70755z" data-paper-data="{&quot;origPos&quot;:null}"/></g><g><path d="M259.24673,188.41172l-14.52432,-5.67775l14.47155,-6.70755z" data-paper-data="{&quot;origPos&quot;:null}"/><path d="M259.18709,174.41185l-14.52432,-5.67776l14.47155,-6.70755z" data-paper-data="{&quot;origPos&quot;:null}"/></g><g data-paper-data="{&quot;origPos&quot;:null}"><path d="M259.1317,161.41197l-14.52432,-5.67776l14.47155,-6.70755z" data-paper-data="{&quot;origPos&quot;:null}"/><path d="M259.07206,147.41209l-14.52432,-5.67776l14.47155,-6.70755z" data-paper-data="{&quot;origPos&quot;:null}"/></g><path d="M259.01667,134.41221l-14.52432,-5.67776l14.47155,-6.70755z" data-paper-data="{&quot;origPos&quot;:null}"/></g><g data-paper-data="{&quot;index&quot;:null}"><g><g><path d="M192.54513,296.02582l14.47155,6.70755l-14.52432,5.67775z" data-paper-data="{&quot;origPos&quot;:null}"/><path d="M192.60477,282.02594l14.47155,6.70755l-14.52432,5.67776z" data-paper-data="{&quot;origPos&quot;:null}"/></g><g data-paper-data="{&quot;origPos&quot;:null}"><path d="M192.66015,269.02606l14.47155,6.70755l-14.52432,5.67776z" data-paper-data="{&quot;origPos&quot;:null}"/><path d="M192.71979,255.02617l14.47155,6.70755l-14.52432,5.67776z" data-paper-data="{&quot;origPos&quot;:null}"/></g><path d="M192.77519,242.0263l14.47155,6.70755l-14.52432,5.67776z" data-paper-data="{&quot;origPos&quot;:null}"/></g><g><path d="M192.82631,230.02642l14.47155,6.70755l-14.52432,5.67775z" data-paper-data="{&quot;origPos&quot;:null}"/><path d="M192.88595,216.02654l14.47155,6.70755l-14.52432,5.67776z" data-paper-data="{&quot;origPos&quot;:null}"/></g><g data-paper-data="{&quot;origPos&quot;:null}"><path d="M192.94133,203.02666l14.47155,6.70755l-14.52432,5.67776z" data-paper-data="{&quot;origPos&quot;:null}"/><path d="M193.00098,189.02678l14.47155,6.70755l-14.52432,5.67776z" data-paper-data="{&quot;origPos&quot;:null}"/></g><path d="M193.05636,176.0269l14.47155,6.70755l-14.52432,5.67776z" data-paper-data="{&quot;origPos&quot;:null}"/></g><g><g><g><path d="M344.52792,309.41112l-14.52432,-5.67775l14.47155,-6.70755z" data-paper-data="{&quot;origPos&quot;:null}"/><path d="M344.46828,295.41125l-14.52432,-5.67776l14.47155,-6.70755z" data-paper-data="{&quot;origPos&quot;:null}"/></g><g data-paper-data="{&quot;origPos&quot;:null}"><path d="M344.41288,282.41137l-14.52432,-5.67776l14.47155,-6.70755z" data-paper-data="{&quot;origPos&quot;:null}"/><path d="M344.35325,268.41149l-14.52432,-5.67776l14.47155,-6.70755z" data-paper-data="{&quot;origPos&quot;:null}"/></g><path d="M344.29786,255.41161l-14.52432,-5.67776l14.47155,-6.70755z" data-paper-data="{&quot;origPos&quot;:null}"/></g><g><path d="M344.24674,243.41171l-14.52432,-5.67775l14.47155,-6.70755z" data-paper-data="{&quot;origPos&quot;:null}"/><path d="M344.1871,229.41184l-14.52432,-5.67776l14.47155,-6.70755z" data-paper-data="{&quot;origPos&quot;:null}"/></g><g data-paper-data="{&quot;origPos&quot;:null}"><path d="M344.13171,216.41197l-14.52432,-5.67776l14.47155,-6.70755z" data-paper-data="{&quot;origPos&quot;:null}"/><path d="M344.07207,202.41209l-14.52432,-5.67776l14.47155,-6.70755z" data-paper-data="{&quot;origPos&quot;:null}"/></g><path d="M344.01668,189.4122l-14.52432,-5.67776l14.47155,-6.70755z" data-paper-data="{&quot;origPos&quot;:null}"/></g></g></g></svg>