<svg version="1.1" xmlns="http://www.w3.org/2000/svg" xmlns:xlink="http://www.w3.org/1999/xlink" width="24.60539" height="26.55625" viewBox="0,0,24.60539,26.55625"><g transform="translate(-224.32262,-168.41845)"><g data-paper-data="{&quot;isPaintingLayer&quot;:true}" fill-rule="nonzero" stroke="none" stroke-width="1" stroke-linecap="butt" stroke-linejoin="miter" stroke-miterlimit="10" stroke-dasharray="" stroke-dashoffset="0" style="mix-blend-mode: normal"><g><path d="M247.68896,183.51638c0,5.74518 -4.95342,10.40397 -11.06483,10.40397c-6.1114,0 -11.06444,-4.65682 -11.06444,-10.40397c0,-5.74518 4.95264,-8.41391 11.06444,-8.41391c6.11101,-0.00039 11.06483,2.66912 11.06483,8.41391z" fill="#ec1c2c"/><g fill="#231f20"><path d="M248.92801,183.40524c0,6.38942 -5.5079,11.56946 -12.30309,11.56946c-6.794,0 -12.3023,-5.18004 -12.3023,-11.56946c0,-5.63089 4.27953,-8.16594 9.94601,-8.68956c0,0 1.79075,-0.22938 3.61314,-0.07475c2.65127,0.1234 5.05422,0.64833 6.93672,1.67669c2.52169,1.37753 4.10952,3.65841 4.10952,7.08762zM247.05106,183.57491c0,-4.98388 -3.9576,-7.50785 -9.07594,-7.87803c0,0 -3.24573,0.04548 -3.34421,0.05695c-4.80315,0.53035 -8.42933,3.04918 -8.42933,7.82029c0,5.41258 4.66591,9.80205 10.42375,9.80205c5.75745,0 10.42336,-4.38868 10.42574,-9.80126z"/><path d="M240.16569,178.24181c-1.41108,0.07159 -2.76284,0.10718 -4.17669,0.26576c-0.94402,0.10599 -1.85364,0.11429 -2.55285,-0.59876c-0.15187,-0.15622 0.04667,-0.42554 0.2365,-0.3057c0.46746,0.29305 0.93848,0.41169 1.41228,0.43464c0.03084,0.02531 1.69029,-0.19378 2.44804,-0.43424c0.91435,-0.24915 1.8295,-0.45481 2.7403,-0.15384c0.43543,0.14395 0.35119,0.76803 -0.10757,0.79215z"/></g><path d="M229.28792,183.46061c0,1.3569 0.73164,2.45675 -0.03323,2.45675c-0.76487,0 -1.3842,-1.09984 -1.3842,-2.45675c0,-1.35651 0.61933,-2.45635 1.3842,-2.45635c0.76487,0 0.03323,1.10023 0.03323,2.45635z" fill="#ffffff"/></g><g><path d="M233.45945,170.53712c0.46229,-0.27619 0.92323,-0.5533 1.38507,-0.82995c0.33235,0.51073 0.6665,1.00925 0.93455,1.57659c0.97891,2.0665 0.76339,4.24938 0.73531,6.43496c-0.16979,0.0403 -0.44238,0.06927 -0.61035,0.09915c0.11681,-2.78371 -0.5456,-5.33561 -2.44458,-7.28076z" fill="#99661d"/><path d="M237.61645,176.7638c0,0 -0.10415,0.84943 -0.11365,1.00971c0,0 -1.70745,0.50893 -2.37711,0.25447l-0.02082,-0.72853c0.01358,-1.45571 -0.4392,-3.01916 -0.70725,-3.50862c-0.12813,-0.23364 -0.64432,-1.56934 -2.21865,-2.9689c-0.26986,-0.23862 -0.17886,-0.68597 0.10957,-0.85939c0.81819,-0.49082 1.6341,-0.98164 2.45137,-1.47246c0.26262,-0.15711 0.57277,-0.03985 0.75071,0.19696c2.50299,3.33158 2.20234,7.73219 2.12582,8.07675zM236.4682,177.08709c0.05071,-2.01126 0.22187,-3.88036 -0.68913,-5.80333c-0.26806,-0.56734 -0.60221,-1.06586 -0.93455,-1.57659c-0.46184,0.27665 -0.92277,0.55376 -1.38507,0.82995c1.79393,1.8374 2.52653,4.06102 2.50389,6.64822v0.52161l0.50214,-0.06384z" fill="#231f20"/></g></g></g></svg>