<svg version="1.1" xmlns="http://www.w3.org/2000/svg" xmlns:xlink="http://www.w3.org/1999/xlink" width="183.17253" height="18.93369" viewBox="0,0,183.17253,18.93369"><g transform="translate(-316.41089,-228.25003)"><g data-paper-data="{&quot;isPaintingLayer&quot;:true}" fill="none" fill-rule="nonzero" stroke="#000000" stroke-width="2.5" stroke-linecap="butt" stroke-linejoin="miter" stroke-miterlimit="10" stroke-dasharray="" stroke-dashoffset="0" style="mix-blend-mode: normal"><g><g data-paper-data="{&quot;index&quot;:null}"><g><g><g><g><path d="M382.63547,229.50003l-6.64583,14.5l-5.73959,-14.5z" data-paper-data="{&quot;origPos&quot;:null}"/><path d="M395.63547,229.50003l-6.64583,14.5l-5.73959,-14.5z" data-paper-data="{&quot;origPos&quot;:null}"/></g><g><path d="M409.63547,229.50003l-6.64583,14.5l-5.73959,-14.5z" data-paper-data="{&quot;origPos&quot;:null}"/><path d="M422.63547,229.50003l-6.64583,14.5l-5.73959,-14.5z" data-paper-data="{&quot;origPos&quot;:null}"/></g></g><g><g><path d="M330.63547,229.50003l-6.64583,14.5l-5.73959,-14.5z" data-paper-data="{&quot;origPos&quot;:null}"/><path d="M343.63547,229.50003l-6.64583,14.5l-5.73959,-14.5z" data-paper-data="{&quot;origPos&quot;:null}"/></g><g><path d="M357.63547,229.50003l-6.64583,14.5l-5.73959,-14.5z" data-paper-data="{&quot;origPos&quot;:null}"/><path d="M370.63547,229.50003l-6.64583,14.5l-5.73959,-14.5z" data-paper-data="{&quot;origPos&quot;:null}"/></g></g></g><g><path d="M435.63547,229.50003l-6.64583,14.5l-5.73959,-14.5z" data-paper-data="{&quot;origPos&quot;:null}"/><path d="M448.63547,229.50003l-6.64583,14.5l-5.73959,-14.5z" data-paper-data="{&quot;origPos&quot;:null}"/></g></g><g><path d="M459.63547,229.50003l-6.64583,14.5l-5.73959,-14.5z" data-paper-data="{&quot;origPos&quot;:null}"/><path d="M472.63547,229.50003l-6.64583,14.5l-5.73959,-14.5z" data-paper-data="{&quot;origPos&quot;:null}"/></g></g><g><path d="M484.63547,229.50003l-6.64583,14.5l-5.73959,-14.5z" data-paper-data="{&quot;origPos&quot;:null}"/><path d="M497.63547,229.50003l-6.64583,14.5l-5.73959,-14.5z" data-paper-data="{&quot;origPos&quot;:null}"/></g></g></g></g></svg>