<svg version="1.1" xmlns="http://www.w3.org/2000/svg" xmlns:xlink="http://www.w3.org/1999/xlink" width="234.17253" height="18.93371" viewBox="0,0,234.17253,18.93371"><g transform="translate(-97.41084,-295.3163)"><g data-paper-data="{&quot;isPaintingLayer&quot;:true}" fill="none" fill-rule="nonzero" stroke="#000000" stroke-width="2.5" stroke-linecap="butt" stroke-linejoin="miter" stroke-miterlimit="10" stroke-dasharray="" stroke-dashoffset="0" style="mix-blend-mode: normal"><g><g><path d="M99.25,313l5.73958,-14.5l6.64583,14.5z" data-paper-data="{&quot;origPos&quot;:null}"/><path d="M113.25,313l5.73959,-14.5l6.64583,14.5z" data-paper-data="{&quot;origPos&quot;:null}"/></g><g data-paper-data="{&quot;origPos&quot;:null}"><path d="M126.25,313l5.73959,-14.5l6.64583,14.5z" data-paper-data="{&quot;origPos&quot;:null}"/><path d="M140.25,313l5.73959,-14.5l6.64583,14.5z" data-paper-data="{&quot;origPos&quot;:null}"/></g><path d="M153.25,313l5.73959,-14.5l6.64583,14.5z" data-paper-data="{&quot;origPos&quot;:null}"/></g><g><g><path d="M181.25,313.00001l5.73958,-14.5l6.64583,14.5z" data-paper-data="{&quot;origPos&quot;:null}"/><path d="M195.25,313.00001l5.73959,-14.5l6.64583,14.5z" data-paper-data="{&quot;origPos&quot;:null}"/></g><g data-paper-data="{&quot;origPos&quot;:null}"><path d="M208.25,313.00001l5.73959,-14.5l6.64583,14.5z" data-paper-data="{&quot;origPos&quot;:null}"/><path d="M222.25,313.00001l5.73959,-14.5l6.64583,14.5z" data-paper-data="{&quot;origPos&quot;:null}"/></g><path d="M235.25,313.00001l5.73959,-14.5l6.64583,14.5z" data-paper-data="{&quot;origPos&quot;:null}"/></g><g><g><path d="M263.25,313.00001l5.73958,-14.5l6.64583,14.5z" data-paper-data="{&quot;origPos&quot;:null}"/><path d="M277.25,313.00001l5.73959,-14.5l6.64583,14.5z" data-paper-data="{&quot;origPos&quot;:null}"/></g><g data-paper-data="{&quot;origPos&quot;:null}"><path d="M290.25,313.00001l5.73959,-14.5l6.64583,14.5z" data-paper-data="{&quot;origPos&quot;:null}"/><path d="M304.25,313.00001l5.73959,-14.5l6.64583,14.5z" data-paper-data="{&quot;origPos&quot;:null}"/></g><path d="M317.25,313.00001l5.73959,-14.5l6.64583,14.5z" data-paper-data="{&quot;origPos&quot;:null}"/></g></g></g></svg>