<svg version="1.1" xmlns="http://www.w3.org/2000/svg" xmlns:xlink="http://www.w3.org/1999/xlink" width="68.88162" height="77.05797" viewBox="0,0,68.88162,77.05797"><g transform="translate(-205.40694,-142.32115)"><g data-paper-data="{&quot;isPaintingLayer&quot;:true}" fill="none" fill-rule="nonzero" stroke-linecap="butt" stroke-linejoin="miter" stroke-miterlimit="10" stroke-dasharray="" stroke-dashoffset="0" style="mix-blend-mode: normal"><path d="M259.3,160.6v25.2c0,0.5 -0.17309,1 -0.51928,1.2c-2.76951,2.8 -6.23139,4.2 -9.77982,4.2c-3.54843,0 -7.01031,-1.5 -9.77982,-4.2c-2.25022,-2.2 -5.01973,-3.5 -7.96233,-3.5c-2.68296,0 -5.27937,1 -7.44305,3v31.36667c0,1 -0.68296,-58.56667 -0.25023,-58.86667c2.76951,-2.6 4.0583,-4 7.52018,-4c3.54843,0 7.09686,1.5 9.86637,4.2c2.25022,2.2 5.01973,3.4 7.96233,3.4c2.9426,0 5.71211,-1.2 7.96233,-3.4c0.51928,-0.4 1.12511,-0.5 1.64439,-0.2c0.51928,0.3 0.77892,0.9 0.77892,1.6z" data-paper-data="{&quot;origPos&quot;:null}" stroke="#000000" stroke-width="3"/><path d="M205.40695,218.21284v-75.89169h68.88162v75.89169z" stroke="none" stroke-width="0"/></g></g></svg>