<svg version="1.1" xmlns="http://www.w3.org/2000/svg" xmlns:xlink="http://www.w3.org/1999/xlink" width="255.17253" height="359.00001" viewBox="0,0,255.17253,359.00001"><g transform="translate(-113.41086,43.74998)"><g data-paper-data="{&quot;isPaintingLayer&quot;:true}" fill="none" fill-rule="nonzero" stroke="#000000" stroke-width="2.5" stroke-linecap="butt" stroke-linejoin="miter" stroke-miterlimit="10" stroke-dasharray="" stroke-dashoffset="0" style="mix-blend-mode: normal"><g><g><g><path d="M127.63543,-42.49998l-6.64583,14.5l-5.73958,-14.5z" data-paper-data="{&quot;origPos&quot;:null}"/><path d="M141.63544,-42.49998l-6.64583,14.5l-5.73959,-14.5z" data-paper-data="{&quot;origPos&quot;:null}"/></g><g data-paper-data="{&quot;origPos&quot;:null}"><path d="M154.63543,-42.49998l-6.64583,14.5l-5.73959,-14.5z" data-paper-data="{&quot;origPos&quot;:null}"/><path d="M168.63543,-42.49998l-6.64583,14.5l-5.73959,-14.5z" data-paper-data="{&quot;origPos&quot;:null}"/></g><path d="M181.63543,-42.49998l-6.64583,14.5l-5.73959,-14.5z" data-paper-data="{&quot;origPos&quot;:null}"/></g><g><path d="M193.63543,-42.49998l-6.64583,14.5l-5.73958,-14.5z" data-paper-data="{&quot;origPos&quot;:null}"/><path d="M207.63544,-42.49998l-6.64583,14.5l-5.73959,-14.5z" data-paper-data="{&quot;origPos&quot;:null}"/></g><g data-paper-data="{&quot;origPos&quot;:null}"><path d="M220.63544,-42.49998l-6.64583,14.5l-5.73959,-14.5z" data-paper-data="{&quot;origPos&quot;:null}"/><path d="M234.63544,-42.49998l-6.64583,14.5l-5.73959,-14.5z" data-paper-data="{&quot;origPos&quot;:null}"/></g><path d="M247.63544,-42.49998l-6.64583,14.5l-5.73959,-14.5z" data-paper-data="{&quot;origPos&quot;:null}"/><path d="M259.63544,-42.49998l-6.64583,14.5l-5.73959,-14.5z" data-paper-data="{&quot;origPos&quot;:null}"/><g><path d="M272.63543,-42.49998l-6.64583,14.5l-5.73958,-14.5z" data-paper-data="{&quot;origPos&quot;:null}"/><path d="M286.63543,-42.49998l-6.64583,14.5l-5.73959,-14.5z" data-paper-data="{&quot;origPos&quot;:null}"/></g><g data-paper-data="{&quot;origPos&quot;:null}"><path d="M299.63543,-42.49998l-6.64583,14.5l-5.73959,-14.5z" data-paper-data="{&quot;origPos&quot;:null}"/><path d="M313.63543,-42.49998l-6.64583,14.5l-5.73959,-14.5z" data-paper-data="{&quot;origPos&quot;:null}"/></g><path d="M326.63543,-42.49998l-6.64583,14.5l-5.73959,-14.5z" data-paper-data="{&quot;origPos&quot;:null}"/><path d="M338.63543,-42.49998l-6.64583,14.5l-5.73958,-14.5z" data-paper-data="{&quot;origPos&quot;:null}"/><path d="M352.63544,-42.49998l-6.64583,14.5l-5.73959,-14.5z" data-paper-data="{&quot;origPos&quot;:null}"/><path d="M365.63544,-42.49998l-6.64583,14.5l-5.73959,-14.5z" data-paper-data="{&quot;origPos&quot;:null}"/></g><g data-paper-data="{&quot;index&quot;:null}"><g><g><path d="M116.25002,314.00001l5.73958,-14.5l6.64583,14.5z" data-paper-data="{&quot;origPos&quot;:null}"/><path d="M130.25001,314.00001l5.73959,-14.5l6.64583,14.5z" data-paper-data="{&quot;origPos&quot;:null}"/></g><g data-paper-data="{&quot;origPos&quot;:null}"><path d="M143.25,314.00001l5.73959,-14.5l6.64583,14.5z" data-paper-data="{&quot;origPos&quot;:null}"/><path d="M157.25,314.00001l5.73959,-14.5l6.64583,14.5z" data-paper-data="{&quot;origPos&quot;:null}"/></g><path d="M170.25001,314.00001l5.73959,-14.5l6.64583,14.5z" data-paper-data="{&quot;origPos&quot;:null}"/></g><g><path d="M182.25002,314.00002l5.73958,-14.5l6.64583,14.5z" data-paper-data="{&quot;origPos&quot;:null}"/><path d="M196.25002,314.00002l5.73959,-14.5l6.64583,14.5z" data-paper-data="{&quot;origPos&quot;:null}"/></g><g data-paper-data="{&quot;origPos&quot;:null}"><path d="M209.25002,314.00002l5.73959,-14.5l6.64583,14.5z" data-paper-data="{&quot;origPos&quot;:null}"/><path d="M223.25002,314.00002l5.73959,-14.5l6.64583,14.5z" data-paper-data="{&quot;origPos&quot;:null}"/></g><path d="M236.25002,314.00002l5.73959,-14.5l6.64583,14.5z" data-paper-data="{&quot;origPos&quot;:null}"/><path d="M248.25002,314.00002l5.73959,-14.5l6.64583,14.5z" data-paper-data="{&quot;origPos&quot;:null}"/><g><path d="M261.25002,314.00001l5.73958,-14.5l6.64583,14.5z" data-paper-data="{&quot;origPos&quot;:null}"/><path d="M275.25002,314.00001l5.73959,-14.5l6.64583,14.5z" data-paper-data="{&quot;origPos&quot;:null}"/></g><g data-paper-data="{&quot;origPos&quot;:null}"><path d="M288.25002,314.00001l5.73959,-14.5l6.64583,14.5z" data-paper-data="{&quot;origPos&quot;:null}"/><path d="M302.25002,314.00001l5.73959,-14.5l6.64583,14.5z" data-paper-data="{&quot;origPos&quot;:null}"/></g><path d="M315.25002,314.00001l5.73959,-14.5l6.64583,14.5z" data-paper-data="{&quot;origPos&quot;:null}"/><path d="M327.25002,314.00002l5.73958,-14.5l6.64583,14.5z" data-paper-data="{&quot;origPos&quot;:null}"/><path d="M341.25002,314.00002l5.73959,-14.5l6.64583,14.5z" data-paper-data="{&quot;origPos&quot;:null}"/><path d="M354.25002,314.00002l5.73959,-14.5l6.64583,14.5z" data-paper-data="{&quot;origPos&quot;:null}"/></g></g></g></svg>