<svg version="1.1" xmlns="http://www.w3.org/2000/svg" xmlns:xlink="http://www.w3.org/1999/xlink" width="221.9378" height="222.17711" viewBox="0,0,221.9378,222.17711"><g transform="translate(-149.64561,-92.07291)"><g data-paper-data="{&quot;isPaintingLayer&quot;:true}" fill="none" fill-rule="nonzero" stroke="#000000" stroke-width="2.5" stroke-linecap="butt" stroke-linejoin="miter" stroke-miterlimit="10" stroke-dasharray="" stroke-dashoffset="0" style="mix-blend-mode: normal"><g><path d="" data-paper-data="{&quot;origPos&quot;:null}"/><path d="" data-paper-data="{&quot;origPos&quot;:null}"/></g><g data-paper-data="{&quot;origPos&quot;:null}"><path d="" data-paper-data="{&quot;origPos&quot;:null}"/><path d="" data-paper-data="{&quot;origPos&quot;:null}"/></g><path d="" data-paper-data="{&quot;origPos&quot;:null}"/><g><path d="" data-paper-data="{&quot;origPos&quot;:null}"/><path d="" data-paper-data="{&quot;origPos&quot;:null}"/></g><g><path d="" data-paper-data="{&quot;origPos&quot;:null}"/><path d="" data-paper-data="{&quot;origPos&quot;:null}"/></g><g><g><g><g><path d="M168.52791,279.41112l-14.52432,-5.67775l14.47155,-6.70755z" data-paper-data="{&quot;origPos&quot;:null}"/><path d="M168.46827,265.41125l-14.52432,-5.67776l14.47155,-6.70755z" data-paper-data="{&quot;origPos&quot;:null}"/></g><g data-paper-data="{&quot;origPos&quot;:null}"><path d="M168.41288,252.41137l-14.52432,-5.67776l14.47155,-6.70755z" data-paper-data="{&quot;origPos&quot;:null}"/><path d="M168.35324,238.41149l-14.52432,-5.67776l14.47155,-6.70755z" data-paper-data="{&quot;origPos&quot;:null}"/></g><path d="M168.29785,225.41161l-14.52432,-5.67776l14.47155,-6.70755z" data-paper-data="{&quot;origPos&quot;:null}"/></g><g><path d="M168.24673,213.41172l-14.52432,-5.67775l14.47155,-6.70755z" data-paper-data="{&quot;origPos&quot;:null}"/><path d="M168.18709,199.41185l-14.52432,-5.67776l14.47155,-6.70755z" data-paper-data="{&quot;origPos&quot;:null}"/></g><g data-paper-data="{&quot;origPos&quot;:null}"><path d="M168.1317,186.41197l-14.52432,-5.67776l14.47155,-6.70755z" data-paper-data="{&quot;origPos&quot;:null}"/><path d="M168.07206,172.41209l-14.52432,-5.67776l14.47155,-6.70755z" data-paper-data="{&quot;origPos&quot;:null}"/></g><path d="M168.01667,159.41221l-14.52432,-5.67776l14.47155,-6.70755z" data-paper-data="{&quot;origPos&quot;:null}"/></g><g><path d="M167.52791,147.41112l-14.52432,-5.67775l14.47155,-6.70755z" data-paper-data="{&quot;origPos&quot;:null}"/><path d="M167.46827,133.41125l-14.52432,-5.67776l14.47155,-6.70755z" data-paper-data="{&quot;origPos&quot;:null}"/></g><g data-paper-data="{&quot;origPos&quot;:null}"><path d="M167.41288,120.41137l-14.52432,-5.67776l14.47155,-6.70755z" data-paper-data="{&quot;origPos&quot;:null}"/><path d="M167.35324,106.41149l-14.52432,-5.67776l14.47155,-6.70755z" data-paper-data="{&quot;origPos&quot;:null}"/></g></g><g><g><path d="M181.25003,313.00003l5.73958,-14.5l6.64583,14.5z" data-paper-data="{&quot;origPos&quot;:null}"/><path d="M195.25003,313.00003l5.73959,-14.5l6.64583,14.5z" data-paper-data="{&quot;origPos&quot;:null}"/></g><g data-paper-data="{&quot;origPos&quot;:null}"><path d="M208.25003,313.00003l5.73959,-14.5l6.64583,14.5z" data-paper-data="{&quot;origPos&quot;:null}"/><path d="M222.25003,313.00003l5.73959,-14.5l6.64583,14.5z" data-paper-data="{&quot;origPos&quot;:null}"/></g><path d="M235.25003,313.00003l5.73959,-14.5l6.64583,14.5z" data-paper-data="{&quot;origPos&quot;:null}"/></g><g><g><path d="M248.25003,313.00003l5.73958,-14.5l6.64583,14.5z" data-paper-data="{&quot;origPos&quot;:null}"/><path d="M262.25003,313.00003l5.73959,-14.5l6.64583,14.5z" data-paper-data="{&quot;origPos&quot;:null}"/></g><g data-paper-data="{&quot;origPos&quot;:null}"><path d="M275.25003,313.00003l5.73959,-14.5l6.64583,14.5z" data-paper-data="{&quot;origPos&quot;:null}"/><path d="M289.25003,313.00003l5.73959,-14.5l6.64583,14.5z" data-paper-data="{&quot;origPos&quot;:null}"/></g><path d="M302.25003,313.00003l5.73959,-14.5l6.64583,14.5z" data-paper-data="{&quot;origPos&quot;:null}"/></g><g><path d="M316.25003,313.00003l5.73958,-14.5l6.64583,14.5z" data-paper-data="{&quot;origPos&quot;:null}"/><path d="M330.25003,313.00003l5.73959,-14.5l6.64583,14.5z" data-paper-data="{&quot;origPos&quot;:null}"/></g><g data-paper-data="{&quot;origPos&quot;:null}"><path d="M343.25003,313.00003l5.73959,-14.5l6.64583,14.5z" data-paper-data="{&quot;origPos&quot;:null}"/><path d="M357.25003,313.00003l5.73959,-14.5l6.64583,14.5z" data-paper-data="{&quot;origPos&quot;:null}"/></g></g></g></svg>