<svg version="1.1" xmlns="http://www.w3.org/2000/svg" xmlns:xlink="http://www.w3.org/1999/xlink" width="480.21932" height="195.35001" viewBox="0,0,480.21932,195.35001"><g transform="translate(0.25,-164.9)"><g data-paper-data="{&quot;isPaintingLayer&quot;:true}" fill="none" fill-rule="nonzero" stroke="#000000" stroke-width="2.5" stroke-linecap="butt" stroke-linejoin="miter" stroke-miterlimit="10" stroke-dasharray="" stroke-dashoffset="0" style="mix-blend-mode: normal"><path d="M1,359.00001v-37h107v37z" data-paper-data="{&quot;origPos&quot;:null}"/><path d="M205.71932,267.5183c0,2.59663 -2.15523,4.70163 -4.81383,4.70163c-2.6586,0 -4.81382,-2.10499 -4.81382,-4.70163c0,-2.59663 2.15522,-4.70163 4.81382,-4.70163c2.6586,0 4.81383,2.10499 4.81383,4.70163z"/><path d="M255.38599,170.85163c0,2.59663 -2.15522,4.70163 -4.81383,4.70163c-2.65861,0 -4.81383,-2.10499 -4.81383,-4.70163c0,-2.59663 2.15522,-4.70163 4.81383,-4.70163c2.65861,0 4.81383,2.105 4.81383,4.70163z"/><g><path d="M436.38599,232.5183c0,2.59663 -2.15522,4.70163 -4.81383,4.70163c-2.65861,0 -4.81383,-2.10499 -4.81383,-4.70163c0,-2.59663 2.15522,-4.70163 4.81383,-4.70163c2.65861,0 4.81383,2.105 4.81383,4.70163z"/><path d="M446.71932,232.5183c0,2.59663 -2.15523,4.70163 -4.81383,4.70163c-2.6586,0 -4.81382,-2.10499 -4.81382,-4.70163c0,-2.59663 2.15522,-4.70163 4.81382,-4.70163c2.65861,0 4.81383,2.105 4.81383,4.70163z"/><path d="M457.38599,232.18497c0,2.59663 -2.15523,4.70163 -4.81383,4.70163c-2.65861,0 -4.81383,-2.10499 -4.81383,-4.70163c0,-2.59663 2.15522,-4.70163 4.81383,-4.70163c2.6586,0 4.81383,2.105 4.81383,4.70163z"/><path d="M468.05265,231.5183c0,2.59663 -2.15523,4.70162 -4.81383,4.70162c-2.65861,0 -4.81382,-2.10499 -4.81382,-4.70162c0,-2.59663 2.15522,-4.70163 4.81382,-4.70163c2.6586,0 4.81383,2.105 4.81383,4.70163z"/><path d="M478.71932,227.85163c0,2.59663 -2.15523,4.70163 -4.81383,4.70163c-2.6586,0 -4.81382,-2.10499 -4.81382,-4.70163c0,-2.59663 2.15522,-4.70163 4.81382,-4.70163c2.6586,0 4.81383,2.105 4.81383,4.70163z"/><path d="M420.9055,227.81667c2.65861,0 4.81383,2.10499 4.81383,4.70163c0,2.59664 -2.15522,4.70162 -4.81383,4.70162c-2.65861,0 -4.81383,-2.10499 -4.81383,-4.70162c0,-2.59664 2.15522,-4.70163 4.81383,-4.70163z" data-paper-data="{&quot;index&quot;:null}"/><path d="M410.57216,227.48333c2.65861,0 4.81383,2.10499 4.81383,4.70163c0,2.59664 -2.15522,4.70162 -4.81383,4.70162c-2.65861,0 -4.81383,-2.10499 -4.81383,-4.70162c0,-2.59664 2.15522,-4.70163 4.81383,-4.70163z" data-paper-data="{&quot;index&quot;:null}"/><path d="M399.9055,227.81667c2.65861,0 4.81383,2.105 4.81383,4.70163c0,2.59664 -2.15522,4.70162 -4.81383,4.70162c-2.65861,0 -4.81383,-2.10499 -4.81383,-4.70162c0,-2.59664 2.15522,-4.70163 4.81383,-4.70163z" data-paper-data="{&quot;index&quot;:null}"/><path d="M389.23883,226.81667c2.65861,0 4.81382,2.10499 4.81382,4.70163c0,2.59664 -2.15522,4.70163 -4.81382,4.70163c-2.65861,0 -4.81383,-2.10499 -4.81383,-4.70163c0,-2.59664 2.15523,-4.70163 4.81383,-4.70163z" data-paper-data="{&quot;index&quot;:null}"/><path d="M378.57216,223.15c2.65861,0 4.81383,2.10499 4.81383,4.70163c0,2.59664 -2.15522,4.70162 -4.81383,4.70162c-2.65861,0 -4.81383,-2.10499 -4.81383,-4.70162c0,-2.59664 2.15522,-4.70163 4.81383,-4.70163z" data-paper-data="{&quot;index&quot;:null}"/></g></g></g></svg>