<svg version="1.1" xmlns="http://www.w3.org/2000/svg" xmlns:xlink="http://www.w3.org/1999/xlink" width="283.17253" height="18.93371" viewBox="0,0,283.17253,18.93371"><g transform="translate(-95.41085,-295.31632)"><g data-paper-data="{&quot;isPaintingLayer&quot;:true}" fill="none" fill-rule="nonzero" stroke="#000000" stroke-width="2.5" stroke-linecap="butt" stroke-linejoin="miter" stroke-miterlimit="10" stroke-dasharray="" stroke-dashoffset="0" style="mix-blend-mode: normal"><g><g><path d="M97.25001,313.00001l5.73958,-14.5l6.64583,14.5z" data-paper-data="{&quot;origPos&quot;:null}"/><path d="M111.25001,313.00001l5.73959,-14.5l6.64583,14.5z" data-paper-data="{&quot;origPos&quot;:null}"/></g><g data-paper-data="{&quot;origPos&quot;:null}"><path d="M124.25001,313.00001l5.73959,-14.5l6.64583,14.5z" data-paper-data="{&quot;origPos&quot;:null}"/><path d="M138.25,313.00001l5.73959,-14.5l6.64583,14.5z" data-paper-data="{&quot;origPos&quot;:null}"/></g><path d="M151.25,313.00001l5.73959,-14.5l6.64583,14.5z" data-paper-data="{&quot;origPos&quot;:null}"/></g><g><g><path d="M183.25001,313.00002l5.73958,-14.5l6.64583,14.5z" data-paper-data="{&quot;origPos&quot;:null}"/><path d="M197.25001,313.00002l5.73959,-14.5l6.64583,14.5z" data-paper-data="{&quot;origPos&quot;:null}"/></g><g data-paper-data="{&quot;origPos&quot;:null}"><path d="M210.25001,313.00002l5.73959,-14.5l6.64583,14.5z" data-paper-data="{&quot;origPos&quot;:null}"/><path d="M224.25001,313.00002l5.73959,-14.5l6.64583,14.5z" data-paper-data="{&quot;origPos&quot;:null}"/></g><path d="M237.25001,313.00002l5.73959,-14.5l6.64583,14.5z" data-paper-data="{&quot;origPos&quot;:null}"/></g><g data-paper-data="{&quot;origPos&quot;:null}"><path d="M350.25001,313.00002l5.73959,-14.5l6.64583,14.5z" data-paper-data="{&quot;origPos&quot;:null}"/><path d="M364.25001,313.00002l5.73959,-14.5l6.64583,14.5z" data-paper-data="{&quot;origPos&quot;:null}"/></g></g></g></svg>