<svg version="1.1" xmlns="http://www.w3.org/2000/svg" xmlns:xlink="http://www.w3.org/1999/xlink" width="316.73992" height="212.17187" viewBox="0,0,316.73992,212.17187"><g transform="translate(-185.84347,-93.51003)"><g data-paper-data="{&quot;isPaintingLayer&quot;:true}" fill="none" fill-rule="nonzero" stroke="#000000" stroke-width="2.5" stroke-linecap="butt" stroke-linejoin="miter" stroke-miterlimit="10" stroke-dasharray="" stroke-dashoffset="0" style="mix-blend-mode: normal"><g><g><path d="M376.68862,183.84926l-14.52824,-5.66774l14.46692,-6.71753z" data-paper-data="{&quot;origPos&quot;:null}"/><path d="M376.62425,170.84942l-14.52824,-5.66774l14.46692,-6.71753z" data-paper-data="{&quot;origPos&quot;:null}"/></g><path d="M376.55495,156.8496l-14.52824,-5.66774l14.46692,-6.71753z" data-paper-data="{&quot;origPos&quot;:null}"/><path d="M376.88168,222.84878l-14.52824,-5.66774l14.46692,-6.71753z" data-paper-data="{&quot;origPos&quot;:null}"/><g><path d="M376.81238,208.84895l-14.52824,-5.66774l14.46692,-6.71753z" data-paper-data="{&quot;origPos&quot;:null}"/><path d="M376.74802,195.84911l-14.52824,-5.66774l14.46692,-6.71753z" data-paper-data="{&quot;origPos&quot;:null}"/></g></g><g><g data-paper-data="{&quot;index&quot;:null}"><g><path d="M393.63544,226.50001l-6.64583,14.5l-5.73958,-14.5z" data-paper-data="{&quot;origPos&quot;:null}"/><path d="M407.63544,226.50001l-6.64583,14.5l-5.73959,-14.5z" data-paper-data="{&quot;origPos&quot;:null}"/></g><g data-paper-data="{&quot;origPos&quot;:null}"><path d="M420.63543,226.50001l-6.64583,14.5l-5.73959,-14.5z" data-paper-data="{&quot;origPos&quot;:null}"/><path d="M434.63543,226.50001l-6.64583,14.5l-5.73959,-14.5z" data-paper-data="{&quot;origPos&quot;:null}"/></g><path d="M447.63544,226.50001l-6.64583,14.5l-5.73959,-14.5z" data-paper-data="{&quot;origPos&quot;:null}"/></g><g><path d="M460.63544,226.50001l-6.64583,14.5l-5.73959,-14.5z" data-paper-data="{&quot;origPos&quot;:null}"/><g data-paper-data="{&quot;origPos&quot;:null}"><path d="M473.63543,226.50001l-6.64583,14.5l-5.73959,-14.5z" data-paper-data="{&quot;origPos&quot;:null}"/><path d="M487.63543,226.50001l-6.64583,14.5l-5.73959,-14.5z" data-paper-data="{&quot;origPos&quot;:null}"/></g><path d="M500.63544,226.50001l-6.64583,14.5l-5.73959,-14.5z" data-paper-data="{&quot;origPos&quot;:null}"/></g></g><g><g><path d="M203.68862,120.84926l-14.52824,-5.66774l14.46692,-6.71753z" data-paper-data="{&quot;origPos&quot;:null}"/><path d="M203.62426,107.84942l-14.52824,-5.66774l14.46692,-6.71753z" data-paper-data="{&quot;origPos&quot;:null}"/></g><path d="M203.88168,159.84878l-14.52824,-5.66774l14.46692,-6.71753z" data-paper-data="{&quot;origPos&quot;:null}"/><g><path d="M203.81238,145.84895l-14.52824,-5.66774l14.46692,-6.71753z" data-paper-data="{&quot;origPos&quot;:null}"/><path d="M203.74802,132.84911l-14.52824,-5.66774l14.46692,-6.71753z" data-paper-data="{&quot;origPos&quot;:null}"/></g><g><path d="M203.68862,278.84926l-14.52824,-5.66774l14.46692,-6.71753z" data-paper-data="{&quot;origPos&quot;:null}"/><path d="M203.62425,265.84942l-14.52824,-5.66774l14.46692,-6.71753z" data-paper-data="{&quot;origPos&quot;:null}"/></g><path d="M203.55495,251.8496l-14.52824,-5.66774l14.46692,-6.71753z" data-paper-data="{&quot;origPos&quot;:null}"/><g><path d="M203.81238,303.84895l-14.52824,-5.66774l14.46692,-6.71753z" data-paper-data="{&quot;origPos&quot;:null}"/><path d="M203.74802,290.84911l-14.52824,-5.66774l14.46692,-6.71753z" data-paper-data="{&quot;origPos&quot;:null}"/></g><g><g><path d="M203.68862,198.84926l-14.52824,-5.66774l14.46692,-6.71753z" data-paper-data="{&quot;origPos&quot;:null}"/><path d="M203.62425,185.84942l-14.52824,-5.66774l14.46692,-6.71753z" data-paper-data="{&quot;origPos&quot;:null}"/></g><path d="M203.55495,171.8496l-14.52824,-5.66774l14.46692,-6.71753z" data-paper-data="{&quot;origPos&quot;:null}"/><path d="M203.88168,237.84878l-14.52824,-5.66774l14.46692,-6.71753z" data-paper-data="{&quot;origPos&quot;:null}"/><g><path d="M203.81238,223.84895l-14.52824,-5.66774l14.46692,-6.71753z" data-paper-data="{&quot;origPos&quot;:null}"/><path d="M203.74802,210.84911l-14.52824,-5.66774l14.46692,-6.71753z" data-paper-data="{&quot;origPos&quot;:null}"/></g></g></g></g></g></svg>