<svg version="1.1" xmlns="http://www.w3.org/2000/svg" xmlns:xlink="http://www.w3.org/1999/xlink" width="527.17253" height="175" viewBox="0,0,527.17253,175"><g transform="translate(22.58913,-139.25003)"><g data-paper-data="{&quot;isPaintingLayer&quot;:true}" fill="none" fill-rule="nonzero" stroke="#000000" stroke-width="2.5" stroke-linecap="butt" stroke-linejoin="miter" stroke-miterlimit="10" stroke-dasharray="" stroke-dashoffset="0" style="mix-blend-mode: normal"><g data-paper-data="{&quot;index&quot;:null}"><g><g><path d="M326.63544,140.50003l-6.64583,14.5l-5.73958,-14.5z" data-paper-data="{&quot;origPos&quot;:null}"/><path d="M340.63545,140.50003l-6.64583,14.5l-5.73959,-14.5z" data-paper-data="{&quot;origPos&quot;:null}"/></g><g data-paper-data="{&quot;origPos&quot;:null}"><path d="M353.63545,140.50003l-6.64583,14.5l-5.73959,-14.5z" data-paper-data="{&quot;origPos&quot;:null}"/><path d="M367.63545,140.50003l-6.64583,14.5l-5.73959,-14.5z" data-paper-data="{&quot;origPos&quot;:null}"/></g><path d="M380.63545,140.50003l-6.64583,14.5l-5.73959,-14.5z" data-paper-data="{&quot;origPos&quot;:null}"/></g><g><g><path d="M393.63544,140.50003l-6.64583,14.5l-5.73958,-14.5z" data-paper-data="{&quot;origPos&quot;:null}"/><path d="M407.63545,140.50003l-6.64583,14.5l-5.73959,-14.5z" data-paper-data="{&quot;origPos&quot;:null}"/></g><g data-paper-data="{&quot;origPos&quot;:null}"><path d="M420.63545,140.50003l-6.64583,14.5l-5.73959,-14.5z" data-paper-data="{&quot;origPos&quot;:null}"/><path d="M434.63545,140.50003l-6.64583,14.5l-5.73959,-14.5z" data-paper-data="{&quot;origPos&quot;:null}"/></g><path d="M447.63545,140.50003l-6.64583,14.5l-5.73959,-14.5z" data-paper-data="{&quot;origPos&quot;:null}"/></g><g><path d="M461.63544,140.50003l-6.64583,14.5l-5.73958,-14.5z" data-paper-data="{&quot;origPos&quot;:null}"/><path d="M475.63545,140.50003l-6.64583,14.5l-5.73959,-14.5z" data-paper-data="{&quot;origPos&quot;:null}"/></g><g data-paper-data="{&quot;origPos&quot;:null}"><path d="M488.63545,140.50003l-6.64583,14.5l-5.73959,-14.5z" data-paper-data="{&quot;origPos&quot;:null}"/><path d="M502.63545,140.50003l-6.64583,14.5l-5.73959,-14.5z" data-paper-data="{&quot;origPos&quot;:null}"/></g></g><g data-paper-data="{&quot;index&quot;:null}"><g><g><path d="M137.63544,140.50003l-6.64583,14.5l-5.73958,-14.5z" data-paper-data="{&quot;origPos&quot;:null}"/><path d="M151.63545,140.50003l-6.64583,14.5l-5.73959,-14.5z" data-paper-data="{&quot;origPos&quot;:null}"/></g><g data-paper-data="{&quot;origPos&quot;:null}"><path d="M164.63545,140.50003l-6.64583,14.5l-5.73959,-14.5z" data-paper-data="{&quot;origPos&quot;:null}"/><path d="M178.63545,140.50003l-6.64583,14.5l-5.73959,-14.5z" data-paper-data="{&quot;origPos&quot;:null}"/></g><path d="M191.63545,140.50003l-6.64583,14.5l-5.73959,-14.5z" data-paper-data="{&quot;origPos&quot;:null}"/></g><g><g><path d="M204.63544,140.50003l-6.64583,14.5l-5.73958,-14.5z" data-paper-data="{&quot;origPos&quot;:null}"/><path d="M218.63545,140.50003l-6.64583,14.5l-5.73959,-14.5z" data-paper-data="{&quot;origPos&quot;:null}"/></g><g data-paper-data="{&quot;origPos&quot;:null}"><path d="M231.63545,140.50003l-6.64583,14.5l-5.73959,-14.5z" data-paper-data="{&quot;origPos&quot;:null}"/><path d="M245.63545,140.50003l-6.64583,14.5l-5.73959,-14.5z" data-paper-data="{&quot;origPos&quot;:null}"/></g><path d="M258.63545,140.50003l-6.64583,14.5l-5.73959,-14.5z" data-paper-data="{&quot;origPos&quot;:null}"/></g><g><path d="M272.63544,140.50003l-6.64583,14.5l-5.73958,-14.5z" data-paper-data="{&quot;origPos&quot;:null}"/><path d="M286.63545,140.50003l-6.64583,14.5l-5.73959,-14.5z" data-paper-data="{&quot;origPos&quot;:null}"/></g><g data-paper-data="{&quot;origPos&quot;:null}"><path d="M299.63545,140.50003l-6.64583,14.5l-5.73959,-14.5z" data-paper-data="{&quot;origPos&quot;:null}"/><path d="M313.63545,140.50003l-6.64583,14.5l-5.73959,-14.5z" data-paper-data="{&quot;origPos&quot;:null}"/></g></g><g><g><path d="M-8.36456,140.50003l-6.64583,14.5l-5.73958,-14.5z" data-paper-data="{&quot;origPos&quot;:null}"/><path d="M5.63545,140.50003l-6.64583,14.5l-5.73959,-14.5z" data-paper-data="{&quot;origPos&quot;:null}"/></g><g data-paper-data="{&quot;origPos&quot;:null}"><path d="M18.63545,140.50003l-6.64583,14.5l-5.73959,-14.5z" data-paper-data="{&quot;origPos&quot;:null}"/><path d="M32.63545,140.50003l-6.64583,14.5l-5.73959,-14.5z" data-paper-data="{&quot;origPos&quot;:null}"/></g><path d="M45.63545,140.50003l-6.64583,14.5l-5.73959,-14.5z" data-paper-data="{&quot;origPos&quot;:null}"/></g><g><g><path d="M58.63544,140.50003l-6.64583,14.5l-5.73958,-14.5z" data-paper-data="{&quot;origPos&quot;:null}"/><path d="M72.63545,140.50003l-6.64583,14.5l-5.73959,-14.5z" data-paper-data="{&quot;origPos&quot;:null}"/></g><g data-paper-data="{&quot;origPos&quot;:null}"><path d="M85.63545,140.50003l-6.64583,14.5l-5.73959,-14.5z" data-paper-data="{&quot;origPos&quot;:null}"/><path d="M99.63545,140.50003l-6.64583,14.5l-5.73959,-14.5z" data-paper-data="{&quot;origPos&quot;:null}"/></g><path d="M112.63545,140.50003l-6.64583,14.5l-5.73959,-14.5z" data-paper-data="{&quot;origPos&quot;:null}"/></g><path d="M126.63544,140.50003l-6.64583,14.5l-5.73958,-14.5z" data-paper-data="{&quot;origPos&quot;:null}"/><g><path d="M98.25003,313.00003l5.73959,-14.5l6.64583,14.5z" data-paper-data="{&quot;origPos&quot;:null}"/><path d="M111.25003,313.00003l5.73959,-14.5l6.64583,14.5z" data-paper-data="{&quot;origPos&quot;:null}"/></g><g><path d="M164.25003,313.00003l5.73959,-14.5l6.64583,14.5z" data-paper-data="{&quot;origPos&quot;:null}"/><path d="M177.25003,313.00003l5.73959,-14.5l6.64583,14.5z" data-paper-data="{&quot;origPos&quot;:null}"/></g><g><path d="M235.25003,313.00003l5.73959,-14.5l6.64583,14.5z" data-paper-data="{&quot;origPos&quot;:null}"/><path d="M248.25002,313.00003l5.73959,-14.5l6.64583,14.5z" data-paper-data="{&quot;origPos&quot;:null}"/></g><g><path d="M300.25003,313.00003l5.73959,-14.5l6.64583,14.5z" data-paper-data="{&quot;origPos&quot;:null}"/><path d="M313.25002,313.00003l5.73959,-14.5l6.64583,14.5z" data-paper-data="{&quot;origPos&quot;:null}"/></g></g></g></svg>